<svg width="502.19378662109375px" height="122px" xmlns="http://www.w3.org/2000/svg" viewBox="-1.096893310546875 14 502.19378662109375 122" style="background: rgba(0, 0, 0, 0);" preserveAspectRatio="xMidYMid"><defs><linearGradient id="editing-gradient-gradient" x1="0" x2="1" y1="0.5" y2="0.5" gradientUnits="objectBoundingBox"><stop offset="0" stop-color="#f0f"></stop><stop offset="1" stop-color="#0ff"></stop></linearGradient></defs><g><g transform="translate(72.39997923374176, 104.47000122070312)"><path d="M34.50-13.25L34.50-13.25L34.50-13.25Q36.16-12.03 36.16-9.44L36.16-9.44L36.16-9.44Q36.16-6.85 35.04-5.02L35.04-5.02L35.04-5.02Q33.92-3.20 31.74-1.79L31.74-1.79L31.74-1.79Q27.07 1.22 18.91 1.22L18.91 1.22L18.91 1.22Q10.75 1.22 6.30-3.04L6.30-3.04L6.30-3.04Q1.86-7.30 1.86-14.85L1.86-14.85L1.86-14.85Q1.86-25.54 7.42-33.66L7.42-33.66L7.42-33.66Q11.65-39.68 19.20-42.24L19.20-42.24L19.20-42.24Q23.10-43.52 26.94-43.52L26.94-43.52L26.94-43.52Q30.78-43.52 33.15-43.01L33.15-43.01L33.15-43.01Q35.52-42.50 37.31-41.47L37.31-41.47L37.31-41.47Q41.22-39.23 41.22-35.65L41.22-35.65L41.22-35.65Q41.22-32.38 38.14-29.95L38.14-29.95L38.14-29.95Q35.33-27.78 33.02-27.78L33.02-27.78L33.02-27.78Q30.72-27.78 29.76-28.10L29.76-28.10L29.76-28.10Q30.02-30.40 30.02-31.90L30.02-31.90L30.02-31.90Q30.02-33.41 29.95-34.50L29.95-34.50L29.95-34.50Q29.89-35.58 29.57-36.61L29.57-36.61L29.57-36.61Q28.93-38.98 26.98-38.98L26.98-38.98L26.98-38.98Q25.02-38.98 23.07-37.15L23.07-37.15L23.07-37.15Q21.12-35.33 19.46-32.26L19.46-32.26L19.46-32.26Q15.68-25.28 15.68-17.02L15.68-17.02L15.68-17.02Q15.68-13.06 17.92-10.78L17.92-10.78L17.92-10.78Q20.16-8.51 24.96-8.51L24.96-8.51L24.96-8.51Q28.54-8.51 31.94-10.88L31.94-10.88L31.94-10.88Q33.41-11.90 34.50-13.25ZM73.66-7.10L73.66-7.10L73.66-7.10Q73.66-4.29 76.54-3.46L76.54-3.46L76.54-3.46Q75.84-1.09 73.09 0.19L73.09 0.19L73.09 0.19Q70.78 1.28 68.26 1.28L68.26 1.28L68.26 1.28Q65.73 1.28 64.42 0.61L64.42 0.61L64.42 0.61Q63.10-0.06 62.40-1.15L62.40-1.15L62.40-1.15Q61.25-2.82 61.25-5.95L61.25-5.95L61.25-5.95Q61.25-7.81 62.27-12.93L62.27-12.93L63.17-17.79L63.17-17.79Q64.26-23.36 64.26-25.41L64.26-25.41L64.26-25.41Q64.26-28.99 62.27-28.99L62.27-28.99L62.27-28.99Q59.78-28.99 58.18-25.34L58.18-25.34L58.18-25.34Q57.54-23.94 57.09-21.82L57.09-21.82L52.74 0L39.87 1.28L48.90-44.80L61.76-46.08L61.25-43.52L61.25-43.52Q59.46-33.66 57.92-30.34L57.92-30.34L57.92-30.34Q61.50-33.92 68.10-33.92L68.10-33.92L68.10-33.92Q75.07-33.92 76.35-29.31L76.35-29.31L76.35-29.31Q76.80-27.84 76.80-26.56L76.80-26.56L76.80-26.56Q76.80-25.28 76.70-24.29L76.70-24.29L76.70-24.29Q76.61-23.30 76.29-21.50L76.29-21.50L75.46-16.90L73.98-9.66L73.98-9.66Q73.66-8.19 73.66-7.10ZM84.51-1.92L84.51-1.92L84.51-1.92Q83.01-3.58 82.34-6.21L82.34-6.21L82.34-6.21Q81.66-8.83 81.66-13.12L81.66-13.12L81.66-13.12Q81.66-17.41 83.14-21.31L83.14-21.31L83.14-21.31Q84.61-25.22 87.30-28.03L87.30-28.03L87.30-28.03Q92.80-33.92 101.89-33.92L101.89-33.92L101.89-33.92Q105.15-33.92 107.52-32.83L107.52-32.83L118.46-33.92L113.73-8.96L113.73-8.96Q113.54-8.19 113.54-6.78L113.54-6.78L113.54-6.78Q113.54-5.38 114.40-4.48L114.40-4.48L114.40-4.48Q115.26-3.58 116.54-3.46L116.54-3.46L116.54-3.46Q115.90-1.28 113.57 0L113.57 0L113.57 0Q111.23 1.28 108.61 1.28L108.61 1.28L108.61 1.28Q105.98 1.28 104.22 0.29L104.22 0.29L104.22 0.29Q102.46-0.70 101.95-2.37L101.95-2.37L101.95-2.37Q100.93-0.77 98.75 0.26L98.75 0.26L98.75 0.26Q96.58 1.28 93.66 1.28L93.66 1.28L93.66 1.28Q90.75 1.28 88.38 0.51L88.38 0.51L88.38 0.51Q86.02-0.26 84.51-1.92ZM98.02-27.90L98.02-27.90L98.02-27.90Q97.28-26.75 96.64-24.80L96.64-24.80L96.64-24.80Q96-22.85 94.94-17.63L94.94-17.63L94.94-17.63Q93.89-12.42 93.89-8.70L93.89-8.70L93.89-8.70Q93.89-4.99 94.46-3.90L94.46-3.90L94.46-3.90Q95.04-2.82 96.06-2.82L96.06-2.82L96.06-2.82Q98.11-2.82 99.62-4.77L99.62-4.77L99.62-4.77Q101.12-6.72 101.70-10.18L101.70-10.18L105.09-28.93L105.09-28.93Q103.74-30.08 102.18-30.08L102.18-30.08L102.18-30.08Q100.61-30.08 99.68-29.57L99.68-29.57L99.68-29.57Q98.75-29.06 98.02-27.90ZM142.46-2.69L142.46-2.69L142.46-2.69Q139.39 1.28 131.78 1.28L131.78 1.28L131.78 1.28Q127.81 1.28 124.93-1.12L124.93-1.12L124.93-1.12Q122.05-3.52 122.05-6.98L122.05-6.98L122.05-6.98Q122.05-8.90 122.24-9.86L122.24-9.86L126.53-32.64L139.52-33.92L134.85-9.22L134.85-9.22Q134.59-7.81 134.59-6.98L134.59-6.98L134.59-6.98Q134.59-3.26 136.83-3.26L136.83-3.26L136.83-3.26Q139.33-3.26 141.12-6.66L141.12-6.66L141.12-6.66Q141.70-7.74 141.95-9.15L141.95-9.15L146.50-32.64L159.10-33.92L154.37-8.96L154.37-8.96Q154.18-8 154.18-6.98L154.18-6.98L154.18-6.98Q154.18-5.95 154.75-4.83L154.75-4.83L154.75-4.83Q155.33-3.71 157.18-3.46L157.18-3.46L157.18-3.46Q156.80-1.92 155.46-0.90L155.46-0.90L155.46-0.90Q152.64 1.28 149.60 1.28L149.60 1.28L149.60 1.28Q146.56 1.28 144.77 0.19L144.77 0.19L144.77 0.19Q142.98-0.90 142.46-2.69ZM182.46-33.92L182.46-33.92L182.46-33.92Q184.77-33.92 186.56-33.41L186.56-33.41L186.56-33.41Q186.62-33.66 186.75-34.37L186.75-34.37L187.07-36.35L187.07-36.35Q187.33-37.63 187.71-39.74L187.71-39.74L188.74-44.80L201.47-46.08L194.37-8.96L194.37-8.96Q194.30-8.58 194.30-7.94L194.30-7.94L194.30-6.91L194.30-6.91Q194.30-5.50 195.01-4.45L195.01-4.45L195.01-4.45Q195.71-3.39 196.86-3.39L196.86-3.39L196.86-3.39Q195.58-0.38 191.68 0.90L191.68 0.90L191.68 0.90Q190.34 1.28 188.45 1.28L188.45 1.28L188.45 1.28Q186.56 1.28 184.83 0.29L184.83 0.29L184.83 0.29Q183.10-0.70 182.59-2.37L182.59-2.37L182.59-2.37Q181.57-0.70 179.52 0.29L179.52 0.29L179.52 0.29Q177.47 1.28 174.50 1.28L174.50 1.28L174.50 1.28Q171.52 1.28 169.06 0.51L169.06 0.51L169.06 0.51Q166.59-0.26 165.06-1.92L165.06-1.92L165.06-1.92Q162.24-5.18 162.24-12.61L162.24-12.61L162.24-12.61Q162.24-22.21 167.87-28.03L167.87-28.03L167.87-28.03Q173.50-33.92 182.46-33.92ZM182.02-30.08L182.02-30.08L182.02-30.08Q179.65-30.08 178.37-27.52L178.37-27.52L178.37-27.52Q177.09-24.96 175.78-18.62L175.78-18.62L175.78-18.62Q174.46-12.29 174.46-6.59L174.46-6.59L174.46-6.59Q174.46-2.69 176.77-2.69L176.77-2.69L176.77-2.69Q178.82-2.69 180.26-4.74L180.26-4.74L180.26-4.74Q181.70-6.78 182.27-10.18L182.27-10.18L185.73-28.93L185.73-28.93Q184.38-30.08 182.02-30.08ZM234.50-7.10L234.50-7.10L234.50-7.10Q234.50-4.29 237.38-3.46L237.38-3.46L237.38-3.46Q236.67-1.09 233.92 0.19L233.92 0.19L233.92 0.19Q231.62 1.28 229.09 1.28L229.09 1.28L229.09 1.28Q226.56 1.28 225.25 0.61L225.25 0.61L225.25 0.61Q223.94-0.06 223.23-1.15L223.23-1.15L223.23-1.15Q222.08-2.82 222.08-5.95L222.08-5.95L222.08-5.95Q222.08-7.81 223.10-12.93L223.10-12.93L224.00-17.79L224.00-17.79Q225.09-23.36 225.09-25.41L225.09-25.41L225.09-25.41Q225.09-28.99 223.10-28.99L223.10-28.99L223.10-28.99Q220.61-28.99 219.01-25.34L219.01-25.34L219.01-25.34Q218.37-23.94 217.92-21.82L217.92-21.82L213.57 0L200.70 1.28L209.73-44.80L222.59-46.08L222.08-43.52L222.08-43.52Q220.29-33.66 218.75-30.34L218.75-30.34L218.75-30.34Q222.34-33.92 228.93-33.92L228.93-33.92L228.93-33.92Q235.90-33.92 237.18-29.31L237.18-29.31L237.18-29.31Q237.63-27.84 237.63-26.56L237.63-26.56L237.63-26.56Q237.63-25.28 237.54-24.29L237.54-24.29L237.54-24.29Q237.44-23.30 237.12-21.50L237.12-21.50L236.29-16.90L234.82-9.66L234.82-9.66Q234.50-8.19 234.50-7.10ZM245.34-1.92L245.34-1.92L245.34-1.92Q243.84-3.58 243.17-6.21L243.17-6.21L243.17-6.21Q242.50-8.83 242.50-13.12L242.50-13.12L242.50-13.12Q242.50-17.41 243.97-21.31L243.97-21.31L243.97-21.31Q245.44-25.22 248.13-28.03L248.13-28.03L248.13-28.03Q253.63-33.92 262.72-33.92L262.72-33.92L262.72-33.92Q265.98-33.92 268.35-32.83L268.35-32.83L279.30-33.92L274.56-8.96L274.56-8.96Q274.37-8.19 274.37-6.78L274.37-6.78L274.37-6.78Q274.37-5.38 275.23-4.48L275.23-4.48L275.23-4.48Q276.10-3.58 277.38-3.46L277.38-3.46L277.38-3.46Q276.74-1.28 274.40 0L274.40 0L274.40 0Q272.06 1.28 269.44 1.28L269.44 1.28L269.44 1.28Q266.82 1.28 265.06 0.29L265.06 0.29L265.06 0.29Q263.30-0.70 262.78-2.37L262.78-2.37L262.78-2.37Q261.76-0.77 259.58 0.26L259.58 0.26L259.58 0.26Q257.41 1.28 254.50 1.28L254.50 1.28L254.50 1.28Q251.58 1.28 249.22 0.51L249.22 0.51L249.22 0.51Q246.85-0.26 245.34-1.92ZM258.85-27.90L258.85-27.90L258.85-27.90Q258.11-26.75 257.47-24.80L257.47-24.80L257.47-24.80Q256.83-22.85 255.78-17.63L255.78-17.63L255.78-17.63Q254.72-12.42 254.72-8.70L254.72-8.70L254.72-8.70Q254.72-4.99 255.30-3.90L255.30-3.90L255.30-3.90Q255.87-2.82 256.90-2.82L256.90-2.82L256.90-2.82Q258.94-2.82 260.45-4.77L260.45-4.77L260.45-4.77Q261.95-6.72 262.53-10.18L262.53-10.18L265.92-28.93L265.92-28.93Q264.58-30.08 263.01-30.08L263.01-30.08L263.01-30.08Q261.44-30.08 260.51-29.57L260.51-29.57L260.51-29.57Q259.58-29.06 258.85-27.90ZM302.78-17.98L302.78-17.98L302.78-17.98Q305.09-22.08 305.09-26.24L305.09-26.24L305.09-26.24Q305.09-28.99 303.10-28.99L303.10-28.99L303.10-28.99Q301.57-28.99 299.97-26.37L299.97-26.37L299.97-26.37Q298.30-23.74 297.79-20.35L297.79-20.35L294.46 0L281.22 1.28L287.74-32.64L298.30-33.92L297.15-27.46L297.15-27.46Q300.29-33.92 307.33-33.92L307.33-33.92L307.33-33.92Q311.04-33.92 313.06-32L313.06-32L313.06-32Q315.07-30.08 315.07-26.14L315.07-26.14L315.07-26.14Q315.07-22.21 312.48-19.71L312.48-19.71L312.48-19.71Q309.89-17.22 305.47-17.22L305.47-17.22L305.47-17.22Q303.55-17.22 302.78-17.98ZM336.45-7.23L336.45-7.23L336.45-7.23Q333.12-3.78 327.04-3.78L327.04-3.78L327.04-3.78Q319.42-3.78 317.82-9.34L317.82-9.34L317.82-9.34Q317.31-11.01 317.31-12.86L317.31-12.86L317.31-12.86Q317.31-14.72 317.70-16.64L317.70-16.64L320.70-32.64L333.70-33.92L330.18-15.30L330.18-15.30Q330.05-14.46 329.86-13.57L329.86-13.57L329.86-13.57Q329.66-12.67 329.66-11.74L329.66-11.74L329.66-11.74Q329.66-10.82 329.98-10.21L329.98-10.21L329.98-10.21Q330.30-9.60 330.75-9.22L330.75-9.22L330.75-9.22Q331.52-8.70 332.90-8.70L332.90-8.70L332.90-8.70Q334.27-8.70 335.46-10.37L335.46-10.37L335.46-10.37Q336.64-12.03 337.22-14.91L337.22-14.91L340.74-32.64L353.34-33.92L348.54-8.77L348.54-8.77Q346.18 3.52 341.31 8.38L341.31 8.38L341.31 8.38Q338.82 10.88 335.58 11.87L335.58 11.87L335.58 11.87Q332.35 12.86 328.19 12.86L328.19 12.86L328.19 12.86Q321.47 12.86 317.63 10.75L317.63 10.75L317.63 10.75Q313.79 8.64 313.79 5.12L313.79 5.12L313.79 5.12Q313.79 2.50 315.78 0.99L315.78 0.99L315.78 0.99Q317.76-0.51 320.83-0.51L320.83-0.51L320.83-0.51Q323.52-0.51 325.57 0.64L325.57 0.64L325.57 0.64Q326.78 1.34 327.36 2.24L327.36 2.24L327.36 2.24Q325.89 3.52 325.89 5.63L325.89 5.63L325.89 5.63Q325.89 8.45 328.45 8.45L328.45 8.45L328.45 8.45Q332.67 8.45 335.10-1.28L335.10-1.28L335.10-1.28Q335.81-4.16 336.45-7.23Z" fill="url(#editing-gradient-gradient)"></path></g></g><style>text {
  font-size: 64px;
  font-family: Arial Black;
  dominant-baseline: central;
  text-anchor: middle;
}</style></svg>